<?xml version="1.0" standalone="no"?>
<!DOCTYPE svg PUBLIC "-//W3C//DTD SVG 20010904//EN"
 "http://www.w3.org/TR/2001/REC-SVG-20010904/DTD/svg10.dtd">
<svg version="1.0" xmlns="http://www.w3.org/2000/svg"
 width="300.000000pt" height="278.000000pt" viewBox="0 0 300.000000 278.000000"
 preserveAspectRatio="xMidYMid meet">
<metadata>
Created by potrace 1.10, written by Peter Selinger 2001-2011
</metadata>
<g transform="translate(0.000000,278.000000) scale(0.100000,-0.100000)"
fill="#000000" stroke="none">
<path d="M1157 2756 c-65 -28 -80 -85 -57 -207 10 -52 23 -133 29 -180 10 -78
9 -88 -9 -125 -26 -49 -40 -73 -62 -98 -10 -11 -18 -26 -18 -33 0 -7 -4 -13
-9 -13 -5 0 -13 -9 -16 -20 -4 -11 -16 -32 -28 -45 -12 -13 -35 -47 -52 -76
-16 -28 -38 -60 -47 -70 -9 -10 -25 -33 -34 -51 -9 -18 -23 -40 -31 -48 -17
-19 -50 -70 -92 -142 -18 -32 -40 -63 -49 -70 -27 -20 -93 -118 -139 -205 -9
-18 -20 -33 -25 -33 -4 0 -8 -5 -8 -11 0 -7 -10 -21 -23 -33 -13 -12 -49 -64
-80 -116 -60 -100 -117 -185 -141 -210 -8 -8 -20 -27 -27 -42 -7 -16 -16 -28
-21 -28 -4 0 -8 -6 -8 -14 0 -7 -15 -33 -33 -57 -18 -24 -48 -69 -65 -100 -18
-31 -39 -62 -47 -69 -22 -19 -19 -73 5 -88 20 -12 20 -12 -1 -41 -37 -51 -29
-82 76 -274 53 -97 108 -186 122 -197 25 -20 41 -20 1242 -20 l1216 0 26 23
c30 25 206 342 215 385 5 27 -4 60 -28 96 -10 15 -10 19 -1 23 14 5 18 83 5
83 -4 0 -16 15 -27 33 -10 17 -24 36 -31 40 -8 4 -29 36 -49 70 -54 94 -59
101 -73 110 -7 4 -19 22 -27 40 -22 46 -37 70 -60 94 -11 12 -29 39 -40 59
-11 21 -30 49 -42 62 -13 14 -23 30 -23 35 0 6 -6 18 -14 26 -7 9 -25 38 -39
64 -13 26 -35 58 -48 70 -25 24 -44 51 -56 77 -15 35 -135 209 -147 213 -7 3
-20 20 -30 39 -31 61 -45 83 -168 265 -36 54 -72 111 -79 126 -7 15 -16 27
-20 27 -4 0 -22 25 -39 55 -17 30 -37 61 -43 68 -20 22 -38 57 -33 66 3 4 8
36 11 72 4 35 9 71 11 79 12 36 34 169 34 206 0 27 -7 51 -21 68 -44 55 -52
57 -391 55 -219 -1 -321 -5 -341 -13z"/>
</g>
</svg>
