<?xml version="1.0" standalone="no"?>
<!DOCTYPE svg PUBLIC "-//W3C//DTD SVG 20010904//EN"
 "http://www.w3.org/TR/2001/REC-SVG-20010904/DTD/svg10.dtd">
<svg version="1.0" xmlns="http://www.w3.org/2000/svg"
 width="300.000000pt" height="298.000000pt" viewBox="0 0 300.000000 298.000000"
 preserveAspectRatio="xMidYMid meet">
<metadata>
Created by potrace 1.10, written by Peter Selinger 2001-2011
</metadata>
<g transform="translate(0.000000,298.000000) scale(0.100000,-0.100000)"
fill="#000000" stroke="none">
<path d="M1025 2939 c-38 -17 -146 -62 -240 -100 -261 -107 -265 -115 -142
-305 l84 -131 -22 -89 c-13 -49 -51 -197 -85 -329 -65 -256 -150 -587 -231
-904 -27 -107 -49 -204 -49 -216 0 -26 39 -65 66 -65 11 0 65 18 120 39 54 22
162 64 239 94 284 111 334 131 515 202 309 122 362 143 440 176 86 36 176 73
375 154 77 31 201 82 275 112 74 31 158 64 185 75 28 11 58 27 67 35 18 16 23
57 12 87 -3 9 -83 64 -178 123 -289 179 -539 335 -591 368 -27 18 -115 72
-194 121 -79 49 -185 115 -235 147 -50 31 -105 65 -123 74 -25 13 -33 24 -38
57 -4 23 -18 91 -31 151 -37 165 -74 186 -219 124z"/>
<path d="M175 561 c-38 -16 -60 -51 -60 -95 1 -33 20 -76 94 -211 51 -93 103
-178 115 -187 20 -16 99 -18 1216 -18 1118 0 1196 2 1216 18 25 20 37 41 138
229 88 165 93 188 42 239 l-34 34 -1354 -1 c-744 0 -1362 -4 -1373 -8z"/>
</g>
</svg>
